<?xml version="1.0" standalone="no"?>
<!DOCTYPE svg PUBLIC "-//W3C//DTD SVG 20010904//EN"
 "http://www.w3.org/TR/2001/REC-SVG-20010904/DTD/svg10.dtd">
<svg version="1.0" xmlns="http://www.w3.org/2000/svg"
 width="403.000000pt" height="403.000000pt" viewBox="0 0 403.000000 403.000000"
 preserveAspectRatio="xMidYMid meet">
<metadata>
Created by potrace 1.14, written by Peter Selinger 2001-2017
</metadata>
<g transform="translate(0.000000,403.000000) scale(0.100000,-0.100000)"
fill="#000000" stroke="none">
<path d="M1617 3674 c-1 -1 -87 -5 -192 -8 -104 -4 -206 -8 -225 -10 -19 -2
-71 -7 -115 -11 -44 -3 -91 -8 -105 -10 -14 -2 -52 -6 -85 -10 -243 -25 -385
-85 -520 -220 -44 -44 -88 -90 -98 -103 -49 -64 -116 -216 -132 -302 -3 -14
-7 -36 -9 -50 -3 -14 -8 -49 -11 -79 -4 -30 -8 -63 -11 -74 -2 -11 -6 -54 -9
-96 -3 -42 -8 -83 -10 -91 -2 -8 -7 -53 -10 -100 -4 -47 -8 -101 -10 -120 -2
-19 -7 -120 -10 -225 -6 -171 -9 -196 -32 -254 -15 -40 -25 -83 -25 -115 1
-44 5 -55 31 -78 28 -25 31 -34 36 -105 3 -43 7 -96 10 -118 2 -22 7 -71 11
-110 3 -38 8 -83 10 -100 9 -72 15 -123 19 -163 32 -302 239 -566 516 -655 84
-27 211 -48 379 -62 41 -3 92 -8 113 -10 297 -34 968 -23 1282 19 17 3 75 10
129 16 134 16 232 42 321 86 202 100 351 292 411 529 4 14 12 69 23 155 18
138 21 165 27 237 3 39 7 80 9 90 2 10 4 23 4 29 1 6 19 14 41 18 32 5 45 14
64 44 25 40 59 112 70 149 6 20 5 21 -26 13 -18 -4 -57 -11 -85 -14 l-53 -7 5
78 c7 119 6 414 -1 548 -4 66 -7 147 -8 180 l-1 60 100 17 c55 9 111 19 125
21 55 10 217 38 245 43 82 12 78 9 138 124 32 61 61 120 66 133 l9 24 -131
-24 c-73 -13 -143 -26 -157 -28 -36 -6 -82 -15 -105 -20 -11 -2 -42 -7 -70
-11 -27 -3 -53 -8 -56 -10 -3 -1 -28 -6 -55 -9 -27 -4 -67 -11 -89 -16 -60
-13 -62 -12 -67 25 -4 38 -1 40 78 51 34 5 90 15 234 41 19 3 55 9 80 12 l45
7 67 130 c36 71 65 131 63 133 -2 2 -70 -8 -265 -42 -14 -3 -41 -7 -60 -10
-19 -3 -48 -8 -65 -11 -56 -11 -190 -34 -220 -39 -30 -6 -45 6 -45 35 0 12 13
19 46 24 25 3 54 8 64 10 21 4 67 11 135 21 28 3 55 9 62 13 9 5 143 252 143
264 0 2 -75 -9 -167 -24 -93 -16 -184 -31 -203 -34 -20 -3 -47 -7 -60 -10 -13
-3 -40 -7 -60 -10 -20 -3 -47 -8 -60 -11 -56 -12 -90 -6 -121 21 -60 50 -215
116 -305 129 -22 4 -49 8 -59 10 -11 2 -47 7 -80 10 -33 4 -73 9 -90 11 -78
10 -207 22 -320 30 -121 8 -514 22 -518 19z"/>
</g>
</svg>
